HIERARCHY
ROOT hip
{
	OFFSET 0.000000 0.000000 0.000000 
	CHANNELS 6 Xposition Yposition Zposition Xrotation Zrotation Yrotation
	JOINT abdomen
	{
		OFFSET 0.000000 3.402643 0.000000 
		CHANNELS 3 Xrotation Zrotation Yrotation
		JOINT chest
		{
			OFFSET 0.000000 8.438565 -0.680529 
			CHANNELS 3 Xrotation Zrotation Yrotation
			JOINT neck
			{
				OFFSET 0.000000 10.207942 -0.272212 
				CHANNELS 3 Xrotation Zrotation Yrotation
				JOINT head
				{
					OFFSET 0.000000 3.130431 0.000000 
					CHANNELS 3 Xrotation Zrotation Yrotation
					End Site
					{
						OFFSET 0.000000 3.130435 0.000000 
					}
				}
			}
			JOINT lCollar
			{
				OFFSET 3.470700 6.669187 -0.816635 
				CHANNELS 3 Yrotation Zrotation Xrotation
				JOINT lShldr
				{
					OFFSET 3.198488 0.000000 0.000000 
					CHANNELS 3 Zrotation Yrotation Xrotation
					JOINT lForeArm
					{
						OFFSET 10.139888 0.000000 0.000000 
						CHANNELS 3 Yrotation Zrotation Xrotation
						JOINT lHand
						{
							OFFSET 8.370511 0.000000 0.000000 
							CHANNELS 3 Zrotation Yrotation Xrotation
							End Site
							{
								OFFSET 4.083176 0.000000 0.000000 
							}
						}
					}
				}
			}
			JOINT rCollar
			{
				OFFSET -3.470700 6.669187 -0.816635 
				CHANNELS 3 Yrotation Zrotation Xrotation
				JOINT rShldr
				{
					OFFSET -3.198488 0.000000 0.000000 
					CHANNELS 3 Zrotation Yrotation Xrotation
					JOINT rForeArm
					{
						OFFSET -10.139888 0.000000 0.000000 
						CHANNELS 3 Yrotation Zrotation Xrotation
						JOINT rHand
						{
							OFFSET -8.370511 0.000000 0.000000 
							CHANNELS 3 Zrotation Yrotation Xrotation
							End Site
							{
								OFFSET -4.083176 0.000000 0.000000 
							}
						}
					}
				}
			}
		}
	}
	JOINT lThigh
	{
		OFFSET 5.308129 -1.633274 1.361059 
		CHANNELS 3 Xrotation Zrotation Yrotation
		JOINT lShin
		{
			OFFSET -2.041588 -20.007561 0.000000 
			CHANNELS 3 Xrotation Zrotation Yrotation
			JOINT lFoot
			{
				OFFSET 0.000000 -19.190928 -1.224953 
				CHANNELS 3 Xrotation Yrotation Zrotation
				End Site
				{
					OFFSET 0.000000 -2.449906 4.627600 
				}
			}
		}
	}
	JOINT rThigh
	{
		OFFSET -5.308129 -1.633274 1.361059 
		CHANNELS 3 Xrotation Zrotation Yrotation
		JOINT rShin
		{
			OFFSET 2.041588 -20.007561 0.000000 
			CHANNELS 3 Xrotation Zrotation Yrotation
			JOINT rFoot
			{
				OFFSET 0.000000 -19.190928 -1.224953 
				CHANNELS 3 Xrotation Yrotation Zrotation
				End Site
				{
					OFFSET 0.000000 -2.449906 4.627600 
				}
			}
		}
	}
}
MOTION
Frames: 15
Frame Time: 0.033333
-0.560070 52.629223 -7.507515 -1.260707 0.908160 0.556726 0.000000 0.000000 0.000000 -4.893107 -0.058591 0.517578 4.985816 -1.425771 -0.215020 5.328740 2.049848 -1.729505 -0.309323 9.837241 -3.856177 -12.491574 1.022691 -19.221907 0.841316 -1.720670 24.015646 -2.332271 -2.786671 -3.274796 1.364314 -12.440477 -3.836878 8.765618 -5.215876 -13.110992 -0.694606 4.577384 15.185558 3.522210 2.013963 -3.259566 9.205112 8.376564 7.084179 -1.533030 -2.915753 5.931476 -4.504891 0.291838 -7.752407 7.349031 -11.576288 -10.098979 0.068594 2.693069 -8.354198 -2.908451 -0.267454 9.306032 
-0.560952 52.628216 -7.506408 -1.378691 0.888636 0.517667 0.000000 0.000000 0.000000 -4.795187 -0.029296 0.517578 4.976124 -1.445302 -0.215022 5.482332 2.079077 -1.778299 -0.218663 9.810314 -3.766312 -12.543461 0.878042 -19.416811 0.828270 -1.597636 24.297176 -2.298354 -2.687424 -3.290142 1.412943 -12.440241 -3.746811 8.868793 -5.127421 -13.298203 -0.693491 4.497912 15.311331 3.483742 2.002011 -3.261551 9.386742 8.374540 7.154794 -1.672088 -2.947239 5.902709 -4.410717 0.291861 -7.729047 7.420690 -11.590894 -10.152583 0.235489 2.694954 -8.255899 -3.036550 -0.261589 9.343759 
-0.562608 52.627846 -7.518958 -1.407899 0.898401 0.517668 0.000000 0.000000 0.000000 -4.765992 -0.039061 0.537109 5.008406 -1.494117 -0.322411 5.509016 2.039911 -1.885656 -0.262121 9.969254 -3.739114 -12.713295 0.906624 -19.257750 0.808727 -1.692383 24.054167 -2.091592 -3.046953 -3.285146 1.137417 -12.314965 -3.745243 8.865974 -4.789526 -13.478730 -0.707720 4.430454 16.093208 3.022096 2.025023 -3.284554 9.371621 8.348064 7.110484 -1.600525 -2.885577 5.964256 -4.448550 0.302345 -7.778485 7.440085 -11.611037 -10.225483 0.185181 2.750948 -8.299288 -2.960105 -0.302674 9.251007 
-0.587008 52.636139 -7.536007 -1.349673 0.927702 0.478611 0.000000 0.000000 0.000000 -4.815186 -0.078122 0.537109 4.978090 -1.494123 -0.283361 5.547183 2.088736 -1.866130 -0.206848 9.790264 -3.785563 -12.567171 0.835343 -19.380667 0.788818 -1.615588 24.160658 -2.153497 -3.324557 -3.280653 1.351409 -12.241673 -3.773484 8.931956 -4.941862 -13.662769 -0.675429 4.296970 16.041557 3.145476 2.257264 -3.276977 9.309590 8.355017 7.121556 -1.640688 -2.925858 6.066157 -4.373257 0.301267 -7.766559 7.340352 -11.578995 -10.148449 0.214954 2.710850 -8.462428 -2.968889 -0.275771 9.272739 
-0.596705 52.630222 -7.536536 -1.320458 0.917937 0.478611 0.000000 0.000000 0.000000 -4.844529 -0.087887 0.507812 5.079015 -1.562464 -0.391012 5.429011 2.264255 -1.993718 -0.080744 9.987948 -3.817843 -12.717388 0.723348 -19.172424 0.786131 -1.691559 24.630732 -2.425759 -3.877506 -3.240139 1.336762 -12.251245 -3.794655 9.109408 -4.918239 -13.611915 -0.680487 4.279042 16.432528 3.075334 2.291768 -3.268126 9.211776 8.383688 7.105508 -1.484012 -2.895760 6.015650 -4.475366 0.304260 -7.810053 7.342486 -11.591326 -10.090331 0.155822 2.722325 -8.144508 -2.971932 -0.284114 9.248377 
-0.614953 52.622169 -7.566698 -1.398373 0.888637 0.507903 0.000000 0.000000 0.000000 -4.766604 -0.117183 0.478515 5.160688 -1.542903 -0.527678 5.320323 2.234895 -2.052267 -0.039088 9.886630 -3.756781 -12.547635 0.542913 -19.202967 0.794178 -1.763055 24.543837 -2.427418 -3.848287 -3.241490 1.172714 -12.111373 -3.731560 9.241852 -4.693366 -13.979409 -0.680833 4.090020 16.908323 3.468640 2.089623 -3.266132 9.255726 8.436518 7.162606 -1.504285 -2.906614 6.017727 -4.397440 0.303055 -7.808757 7.396632 -11.526666 -10.123922 0.107940 2.747978 -8.186511 -2.913730 -0.259113 9.204169 
-0.634079 52.623798 -7.579994 -1.487556 0.839818 0.449314 0.000000 0.000000 0.000000 -4.688851 -0.136712 0.566405 5.191017 -1.396401 -0.625290 5.654033 2.098146 -2.140098 -0.209946 10.052953 -3.670144 -12.677881 0.578103 -19.269852 0.796733 -1.686678 24.689262 -2.635386 -3.811167 -3.230129 1.291700 -11.862069 -3.658503 9.176143 -4.856899 -13.866183 -0.676515 4.121461 16.860325 3.459996 2.069605 -3.267708 9.296604 8.506088 7.242469 -1.406389 -2.927490 6.021811 -4.391478 0.309710 -7.848151 7.419226 -11.471590 -10.057218 0.136713 2.710809 -8.184622 -2.902022 -0.256823 9.194241 
-0.650065 52.611103 -7.600835 -1.438574 0.859349 0.449315 0.000000 0.000000 0.000000 -4.629488 -0.068357 0.488281 5.038795 -1.738175 -0.635066 5.648882 2.527198 -2.336019 -0.123739 9.675151 -3.626663 -12.474893 0.470019 -19.362118 0.813104 -1.657466 24.923450 -2.792737 -3.976291 -3.211545 1.305012 -12.301128 -3.605217 9.660345 -4.827017 -14.056801 -0.663266 4.070755 16.476971 3.538072 1.740916 -3.266533 9.234951 8.484644 7.179764 -1.474071 -2.856781 6.004134 -4.370107 0.327944 -7.882325 7.330647 -11.520436 -10.060841 0.185133 2.731670 -8.279498 -2.851826 -0.294018 9.198769 
-0.668055 52.610718 -7.622449 -1.526475 0.917944 0.420024 0.000000 0.000000 0.000000 -4.522733 -0.146479 0.488280 5.100002 -1.757676 -0.713454 5.643086 2.419848 -2.345782 -0.173284 9.774766 -3.528754 -12.682994 0.503236 -19.504034 0.795788 -1.525475 24.950960 -2.713450 -3.991387 -3.215960 1.363773 -12.202929 -3.494008 9.657001 -4.899025 -14.056197 -0.690253 4.044172 16.672468 3.353006 1.721173 -3.282488 9.213832 8.464261 7.156963 -1.202770 -2.848571 5.918627 -4.539913 0.306157 -7.916802 7.371453 -11.531978 -10.053638 0.216071 2.645965 -8.217413 -2.875139 -0.255545 9.225607 
-0.681393 52.603535 -7.662949 -1.632488 0.917933 0.507904 0.000000 0.000000 0.000000 -4.298440 -0.195306 0.458982 5.086139 -1.835731 -0.859873 5.788466 2.517132 -2.502304 -0.177641 9.801658 -3.320038 -12.704105 0.302750 -19.704763 0.793139 -1.462437 24.774387 -2.786798 -3.907588 -3.215131 1.261994 -12.150981 -3.293087 9.557383 -4.915380 -14.105405 -0.707650 3.953825 17.424591 3.925696 1.636144 -3.263783 9.210684 8.480883 7.199490 -1.259238 -2.856253 6.156429 -4.347959 0.303559 -7.923864 7.441082 -11.513927 -10.103027 0.196898 2.722026 -8.307554 -2.788318 -0.244319 9.143419 
-0.694479 52.597263 -7.680905 -1.583314 0.888631 0.546961 0.000000 0.000000 0.000000 -4.327835 -0.263667 0.361324 5.158841 -1.747756 -1.045627 5.872139 2.390300 -2.501896 -0.130465 10.151606 -3.363610 -12.921740 0.353562 -19.512779 0.764086 -1.464500 25.184753 -2.571668 -4.071354 -3.221178 1.288261 -11.967276 -3.312165 9.379107 -4.991285 -13.732419 -0.714360 4.105255 17.428032 3.826517 1.826329 -3.262948 9.038608 8.552246 7.168792 -0.909694 -2.839482 5.850907 -4.564861 0.313384 -7.967270 7.392159 -11.464909 -10.035157 0.177340 2.710744 -8.347681 -2.792393 -0.282915 9.117378 
-0.704518 52.610958 -7.696130 -1.571924 0.898381 0.644758 0.000000 0.000000 0.000000 -4.278339 -0.253904 0.224607 5.162850 -1.913726 -1.074924 5.844911 2.546363 -2.521815 -0.130604 9.935918 -3.321734 -12.795945 0.323888 -19.606581 0.797692 -1.426554 25.447933 -2.439520 -4.327726 -3.218592 1.217198 -12.391694 -3.257038 9.859487 -4.933820 -13.782193 -0.706705 4.132281 16.811615 3.653459 1.776777 -3.261047 9.001381 8.533390 7.175401 -1.211889 -2.858346 6.144118 -4.224159 0.270959 -7.902844 7.397295 -11.440115 -10.022840 0.166638 2.668355 -8.533252 -2.799435 -0.284693 9.137935 
-0.686347 52.584106 -7.735813 -1.473306 0.927668 0.683820 0.000000 0.000000 0.000000 -4.268314 -0.253905 0.166014 5.187500 -2.021068 -1.163109 6.020713 2.497487 -2.570599 -0.167264 9.673775 -3.308766 -12.600679 0.291623 -19.873766 0.789019 -1.256812 25.699923 -2.598248 -4.121691 -3.216688 1.016535 -12.644637 -3.259386 10.133869 -4.762752 -13.819409 -0.671222 4.139414 16.449141 3.444972 1.824072 -3.273806 8.628811 8.571974 7.148827 -0.722879 -2.885240 6.201416 -4.396480 0.296072 -7.938750 7.331915 -11.560050 -10.175092 0.146277 2.848644 -8.166416 -2.822880 -0.241904 9.050570 
-0.616690 52.524307 -7.780707 -1.317675 0.839779 0.713100 0.000000 0.000000 0.000000 -4.297413 -0.166015 0.185546 5.284925 -1.825717 -1.280203 6.294897 2.389987 -2.668174 -0.334219 9.937929 -3.331249 -12.942833 0.387523 -19.750216 0.742273 -1.247692 25.348364 -2.416926 -4.033340 -3.233610 0.812505 -12.400090 -3.316863 9.926436 -4.638565 -13.815870 -0.654416 4.087126 16.840153 3.494302 1.817130 -3.272863 7.935978 8.542079 6.852280 0.213513 -2.690326 6.451088 -4.815460 0.348618 -8.000666 7.107579 -11.677732 -10.222325 0.370665 2.995122 -7.724222 -2.987615 -0.311149 9.090303 
-0.479249 52.437286 -7.817799 -1.029414 0.449182 0.732476 0.000000 0.000000 0.000000 -4.433501 0.039062 0.136725 5.374408 -1.210498 -1.543450 6.222610 2.224062 -2.716587 -0.558367 11.625448 -3.439316 -15.109408 0.487792 -19.348259 0.578213 -1.377887 22.018602 -0.289598 -3.030293 -3.388574 0.785067 -11.247710 -3.442882 9.610120 -4.488629 -14.630535 -0.479754 3.283628 17.978796 3.671818 1.455725 -3.281873 7.056860 8.649546 6.612727 0.837960 -2.352458 7.717760 -4.774139 0.340846 -8.119716 6.786715 -11.601933 -10.130951 0.655697 3.135135 -7.462472 -3.225073 -0.285109 9.276220 
